<?xml version="1.0" encoding="iso-8859-1"?>
<!-- Generator: Adobe Illustrator 16.0.0, SVG Export Plug-In . SVG Version: 6.00 Build 0)  -->
<!DOCTYPE svg PUBLIC "-//W3C//DTD SVG 1.1//EN" "http://www.w3.org/Graphics/SVG/1.1/DTD/svg11.dtd">
<svg version="1.1" id="Forma_1_1_" xmlns="http://www.w3.org/2000/svg" xmlns:xlink="http://www.w3.org/1999/xlink" x="0px" y="0px"
	 width="20.203px" height="20.204px" viewBox="0 0 20.203 20.204" style="enable-background:new 0 0 20.203 20.204;"
	 xml:space="preserve">
<g id="Forma_1">
	<g>
		<path style="fill:#628734;" d="M16.836,0H3.368C1.515,0,0,1.514,0,3.367v13.469c0,1.853,1.515,3.368,3.368,3.368h13.468
			c1.854,0,3.367-1.516,3.367-3.368V3.367C20.203,1.514,18.689,0,16.836,0z M5.051,5.05h10.102c0.181,0,0.355,0.039,0.516,0.112
			l-5.566,6.495L4.535,5.162C4.695,5.089,4.871,5.05,5.051,5.05z M3.788,13.89V6.313c0-0.026,0.001-0.053,0.003-0.079l3.703,4.32
			l-3.662,3.662C3.803,14.111,3.788,14.001,3.788,13.89z M15.152,15.152H5.051c-0.112,0-0.221-0.015-0.327-0.044l3.593-3.593
			l1.784,2.082l1.784-2.081l3.593,3.592C15.374,15.137,15.264,15.152,15.152,15.152z M16.415,13.89c0,0.111-0.015,0.221-0.043,0.326
			l-3.662-3.662l3.703-4.32c0.001,0.026,0.002,0.053,0.002,0.079V13.89z"/>
	</g>
</g>
</svg>
