<?xml version="1.0" encoding="iso-8859-1"?>
<!-- Generator: Adobe Illustrator 16.0.0, SVG Export Plug-In . SVG Version: 6.00 Build 0)  -->
<!DOCTYPE svg PUBLIC "-//W3C//DTD SVG 1.1//EN" "http://www.w3.org/Graphics/SVG/1.1/DTD/svg11.dtd">
<svg version="1.1" id="Forma_1_1_" xmlns="http://www.w3.org/2000/svg" xmlns:xlink="http://www.w3.org/1999/xlink" x="0px" y="0px"
	 width="20.217px" height="20.217px" viewBox="0 0 20.217 20.217" style="enable-background:new 0 0 20.217 20.217;"
	 xml:space="preserve">
<g id="Forma_1">
	<g>
		<path style="fill:#628734;" d="M16.848,0H3.37C1.599,0,0,1.598,0,3.37v13.477c0,1.771,1.599,3.371,3.37,3.371h6.738v-7.449h-2.66
			V9.576h2.66V7.896c0-2.264,1.701-4.302,3.792-4.302h2.722v3.369h-2.722c-0.299,0-0.601,0.342-0.601,0.884v1.729h3.459
			l-0.267,3.192H13.3v7.449h3.548c1.77,0,3.369-1.6,3.369-3.371V3.37C20.217,1.598,18.618,0,16.848,0z"/>
	</g>
</g>
</svg>
