<?xml version="1.0" encoding="iso-8859-1"?>
<!-- Generator: Adobe Illustrator 16.0.0, SVG Export Plug-In . SVG Version: 6.00 Build 0)  -->
<!DOCTYPE svg PUBLIC "-//W3C//DTD SVG 1.1//EN" "http://www.w3.org/Graphics/SVG/1.1/DTD/svg11.dtd">
<svg version="1.1" id="Layer_1" xmlns="http://www.w3.org/2000/svg" xmlns:xlink="http://www.w3.org/1999/xlink" x="0px" y="0px"
	 width="16.11px" height="12.412px" viewBox="0 0 16.11 12.412" style="enable-background:new 0 0 16.11 12.412;"
	 xml:space="preserve">
<path style="fill:#FFFFFF;" d="M15.892,5.679l-5.457-5.461c-0.212-0.213-0.532-0.277-0.811-0.162S9.165,0.444,9.165,0.745v2.456
	c-2.84,0.129-5.092,1.012-6.7,2.628C0.016,8.289,0,11.533,0,11.67c0.001,0.337,0.229,0.632,0.555,0.717
	c0.063,0.017,0.126,0.025,0.189,0.025c0.262,0,0.511-0.14,0.646-0.375c1.425-2.495,5.101-2.868,7.165-2.868
	c0.229,0,0.434,0.005,0.609,0.012v2.487c0,0.301,0.182,0.573,0.459,0.688c0.279,0.116,0.598,0.051,0.811-0.162l5.458-5.461
	c0.14-0.14,0.218-0.329,0.218-0.526C16.11,6.008,16.032,5.819,15.892,5.679z M10.653,9.869V8.483c0-0.38-0.286-0.699-0.663-0.74
	C9.967,7.74,9.405,7.68,8.555,7.68c-1.752,0-4.52,0.253-6.579,1.632C2.273,8.525,2.751,7.651,3.519,6.88
	c1.458-1.464,3.607-2.206,6.39-2.206c0.411,0,0.744-0.333,0.744-0.745V2.542l3.66,3.664L10.653,9.869L10.653,9.869z"/>
</svg>
