<?xml version="1.0" encoding="iso-8859-1"?>
<!-- Generator: Adobe Illustrator 16.0.0, SVG Export Plug-In . SVG Version: 6.00 Build 0)  -->
<!DOCTYPE svg PUBLIC "-//W3C//DTD SVG 1.1//EN" "http://www.w3.org/Graphics/SVG/1.1/DTD/svg11.dtd">
<svg version="1.1" id="Forma_1_1_" xmlns="http://www.w3.org/2000/svg" xmlns:xlink="http://www.w3.org/1999/xlink" x="0px" y="0px"
	 width="20.294px" height="20.294px" viewBox="0 0 20.294 20.294" style="enable-background:new 0 0 20.294 20.294;"
	 xml:space="preserve">
<g id="Forma_1">
	<g>
		<path style="fill:#628734;" d="M16.489,0H3.805C1.703,0,0,1.703,0,3.805v12.684c0,2.103,1.703,3.806,3.805,3.806h12.684
			c2.102,0,3.806-1.703,3.806-3.806V3.805C20.294,1.703,18.59,0,16.489,0z M15.196,7.869l0.007,0.323
			c0,3.302-2.513,7.107-7.108,7.107c-1.41,0-2.724-0.414-3.83-1.121C4.46,14.2,4.66,14.213,4.861,14.213
			c1.171,0,2.248-0.399,3.103-1.068c-1.093-0.02-2.016-0.743-2.334-1.735c0.154,0.028,0.309,0.043,0.471,0.043
			c0.229,0,0.449-0.029,0.658-0.087c-1.143-0.23-2.004-1.239-2.004-2.449V8.884c0.337,0.188,0.722,0.3,1.132,0.313
			C5.216,8.75,4.775,7.985,4.775,7.119c0-0.458,0.123-0.887,0.337-1.256c1.231,1.513,3.073,2.506,5.149,2.611
			c-0.043-0.182-0.064-0.375-0.064-0.57c0-1.379,1.118-2.497,2.498-2.497c0.719,0,1.367,0.303,1.824,0.788
			c0.569-0.112,1.104-0.32,1.588-0.605c-0.188,0.584-0.583,1.073-1.1,1.383c0.505-0.06,0.987-0.196,1.435-0.394
			C16.109,7.079,15.684,7.52,15.196,7.869z"/>
	</g>
</g>
</svg>
